# xmcd
#
# Track frame offsets:
#	150
#	12362
#	24670
#	37357
#	49887
#	61457
#	73200
#	87367
#	97682
#	107937
#	119467
#	132657
#	142157
#	155232
#	166405
#	176145
#	184872
#	197162
#	209345
#	218537
#
# Disc length: 3037
#
# Revision: 3
# Processed by: cddbd v1.5.1PL0 Copyright (c) Steve Scherf et al.
# Submitted via: audiograbber 1.83.01
# Normalized: r2:DSETVAR1
#
DISCID=3d0bdb14
DTITLE=Various Artist - From The Vaults: Decca Country Classics, 1934 - 1973  Disc 2
DYEAR=1900
DGENRE=Country
TTITLE0=Cousin Emmy and Her Kinfolk - Ruby
TTITLE1=Hank Garland - Sugarfoot Rag
TTITLE2=Red Foley - Chattanoogie Shoe Shine Boy
TTITLE3=Bill Monroe - Uncle Pen
TTITLE4=Kitty Wells - It Wasn't God Who Made Honky Tonk Angels
TTITLE5=Goldie Hill - I Let The Stars Get In My Eyes
TTITLE6=Rex Allen - Crying In The Chapel
TTITLE7=Grady martin - Pork Chop Stomp
TTITLE8=Justin Tubb - I Gotta Go Get My Baby
TTITLE9=Red Sovine and Webb Pierce - Why Baby Why
TTITLE10=Red Sovine - If Jesus Came To Your House
TTITLE11=Buddy Holly - Blue Days, Black Nights
TTITLE12=Bobby Helms - Fraulein
TTITLE13=Kalin Twins - When
TTITLE14=Donny Young and Roger Miller - On This Mountain Top
TTITLE15=Webb Pierce - I Ain't Never
TTITLE16=Roy Drusky - Another
TTITLE17=Brenda Lee - I'm Sorry
TTITLE18=Lewis Pruitt - Crazy Bullfrog
TTITLE19=Burl Ives - A Little Bitty Tear
EXTD=
EXTT0=
EXTT1=
EXTT2=
EXTT3=
EXTT4=
EXTT5=
EXTT6=
EXTT7=
EXTT8=
EXTT9=
EXTT10=
EXTT11=
EXTT12=
EXTT13=
EXTT14=
EXTT15=
EXTT16=
EXTT17=
EXTT18=
EXTT19=
PLAYORDER=
